<svg xmlns="http://www.w3.org/2000/svg" width="1760" height="1910" viewBox="0 0 1760 1910"><title>BagooPH Rider design storyboard</title><desc>Eight illustrative compositions with synthetic values. This is design documentation, not a running app or recorded operational result.</desc><rect x="0" y="0" width="1760" height="1910" rx="0" fill="#F1F2F5" stroke="none"/><text x="64" y="68" font-family="Plus Jakarta Sans, sans-serif" font-size="34" font-weight="700" fill="#0F172A" text-anchor="start">BagooPH Rider</text><text x="64" y="111" font-family="Plus Jakarta Sans, sans-serif" font-size="19" font-weight="400" fill="#475569" text-anchor="start">A clear next step, wherever the work takes you.</text><text x="64" y="147" font-family="Plus Jakarta Sans, sans-serif" font-size="13" font-weight="600" fill="#475569" text-anchor="start">Illustrative compositions · Sample values · Planned frontend design</text><text x="64" y="186" font-family="Plus Jakarta Sans, sans-serif" font-size="16" font-weight="600" fill="#0F172A" text-anchor="start">P01  /  Sign in</text><g transform="translate(64,206)"><rect x="0" y="0" width="352" height="760" rx="28" fill="#F7F7FA" stroke="#CBD5E1"/><rect x="123" y="7" width="106" height="10" rx="5" fill="#0F172A" stroke="none"/><text x="25" y="31" font-family="Plus Jakarta Sans, sans-serif" font-size="13" font-weight="600" fill="#0F172A" text-anchor="start">9:41</text><text x="327" y="31" font-family="Plus Jakarta Sans, sans-serif" font-size="13" font-weight="600" fill="#0F172A" text-anchor="end">•••</text><text x="22" y="78" font-family="Plus Jakarta Sans, sans-serif" font-size="20" font-weight="700" fill="#0F172A" text-anchor="start">BagooPH</text><text x="22" y="124" font-family="Plus Jakarta Sans, sans-serif" font-size="25" font-weight="600" fill="#0F172A" text-anchor="start">Sign in</text><text x="22" y="149" font-family="Plus Jakarta Sans, sans-serif" font-size="13" font-weight="500" fill="#475569" text-anchor="start">Your rider workspace</text><rect x="22" y="184" width="308" height="110" rx="20" fill="#FFF2F4" stroke="none"/><g transform="translate(246 203) scale(1.25)"><path d="M0 10 20 0 40 10 20 21Z M0 10v24l20 11 20-11V10 M20 21v24 M10 5l20 10" stroke="#C20836" stroke-width="2" fill="none" stroke-linejoin="round"/></g><text x="38" y="215" font-family="Plus Jakarta Sans, sans-serif" font-size="18" font-weight="600" fill="#0F172A" text-anchor="start">One parcel.</text><text x="38" y="243" font-family="Plus Jakarta Sans, sans-serif" font-size="18" font-weight="600" fill="#0F172A" text-anchor="start">A clear next step.</text><text x="38" y="272" font-family="Plus Jakarta Sans, sans-serif" font-size="12" font-weight="500" fill="#475569" text-anchor="start">Pickup and delivery in one app.</text><text x="22" y="337" font-family="Plus Jakarta Sans, sans-serif" font-size="14" font-weight="600" fill="#0F172A" text-anchor="start">Email address</text><rect x="22" y="349" width="308" height="52" rx="12" fill="#FFFFFF" stroke="#64748B"/><text x="36" y="382" font-family="Plus Jakarta Sans, sans-serif" font-size="16" font-weight="400" fill="#475569" text-anchor="start">rider@example.test</text><text x="22" y="435" font-family="Plus Jakarta Sans, sans-serif" font-size="14" font-weight="600" fill="#0F172A" text-anchor="start">Password</text><rect x="22" y="447" width="308" height="52" rx="12" fill="#FFFFFF" stroke="#64748B"/><text x="36" y="480" font-family="Plus Jakarta Sans, sans-serif" font-size="16" font-weight="400" fill="#475569" text-anchor="start">••••••••••••</text><rect x="23" y="523" width="18" height="18" rx="4" fill="#FFFFFF" stroke="#64748B"/><text x="52" y="537" font-family="Plus Jakarta Sans, sans-serif" font-size="13" font-weight="500" fill="#0F172A" text-anchor="start">Remember email</text><text x="330" y="575" font-family="Plus Jakarta Sans, sans-serif" font-size="14" font-weight="600" fill="#C20836" text-anchor="end">Forgot password?</text><rect x="22" y="603" width="308" height="52" rx="12" fill="#E00D42" stroke="none"/><text x="176.0" y="635" font-family="Plus Jakarta Sans, sans-serif" font-size="14" font-weight="600" fill="#FFFFFF" text-anchor="middle">Sign in</text><text x="176" y="695" font-family="Plus Jakarta Sans, sans-serif" font-size="14" font-weight="600" fill="#C20836" text-anchor="middle">Apply as a rider</text></g><text x="484" y="186" font-family="Plus Jakarta Sans, sans-serif" font-size="16" font-weight="600" fill="#0F172A" text-anchor="start">P05  /  Home / Tasks</text><g transform="translate(484,206)"><rect x="0" y="0" width="352" height="760" rx="28" fill="#F7F7FA" stroke="#CBD5E1"/><rect x="123" y="7" width="106" height="10" rx="5" fill="#0F172A" stroke="none"/><text x="25" y="31" font-family="Plus Jakarta Sans, sans-serif" font-size="13" font-weight="600" fill="#0F172A" text-anchor="start">9:41</text><text x="327" y="31" font-family="Plus Jakarta Sans, sans-serif" font-size="13" font-weight="600" fill="#0F172A" text-anchor="end">•••</text><text x="22" y="78" font-family="Plus Jakarta Sans, sans-serif" font-size="20" font-weight="700" fill="#0F172A" text-anchor="start">BagooPH</text><text x="22" y="124" font-family="Plus Jakarta Sans, sans-serif" font-size="25" font-weight="600" fill="#0F172A" text-anchor="start">Your tasks</text><text x="22" y="149" font-family="Plus Jakarta Sans, sans-serif" font-size="13" font-weight="500" fill="#475569" text-anchor="start">Assigned hub</text><path d="M160 76v-7a8 8 0 0 1 16 0v7l4 5h-24z M165 85h6" stroke="#0F172A" stroke-width="1.8" fill="none" stroke-linejoin="round"/><rect x="208" y="48" width="122" height="48" rx="20" fill="#FFFFFF" stroke="#CBD5E1"/><text x="220" y="78" font-family="Plus Jakarta Sans, sans-serif" font-size="12" font-weight="600" fill="#0F172A" text-anchor="start">On duty</text><rect x="282" y="60" width="36" height="24" rx="12" fill="#E00D42" stroke="none"/><circle cx="306" cy="72" r="9" fill="white"/><rect x="22" y="171" width="102" height="40" rx="20" fill="#FFF2F4" stroke="none"/><text x="73" y="196" font-family="Plus Jakarta Sans, sans-serif" font-size="13" font-weight="600" fill="#C20836" text-anchor="middle">Pickups · 3</text><text x="170" y="196" font-family="Plus Jakarta Sans, sans-serif" font-size="13" font-weight="500" fill="#475569" text-anchor="middle">Delivery</text><text x="287" y="196" font-family="Plus Jakarta Sans, sans-serif" font-size="13" font-weight="500" fill="#475569" text-anchor="middle">Available</text><rect x="22" y="233" width="308" height="230" rx="20" fill="#FFFFFF" stroke="#E2E8F0"/><rect x="22" y="233" width="4" height="230" rx="2" fill="#E00D42" stroke="none"/><rect x="39" y="250" width="163" height="28" rx="20" fill="#FFF2F4" stroke="none"/><text x="51" y="269" font-family="Plus Jakarta Sans, sans-serif" font-size="12" font-weight="600" fill="#C20836" text-anchor="start">Collect from seller</text><text x="39" y="309" font-family="Plus Jakarta Sans, sans-serif" font-size="20" font-weight="600" fill="#0F172A" text-anchor="start">Example seller</text><text x="39" y="337" font-family="Plus Jakarta Sans, sans-serif" font-size="14" font-weight="400" fill="#475569" text-anchor="start">Example collection address</text><text x="39" y="367" font-family="Plus Jakarta Sans, sans-serif" font-size="13" font-weight="500" fill="#475569" text-anchor="start">Parcel DEMO-04821</text><rect x="39" y="392" width="274" height="52" rx="12" fill="#E00D42" stroke="none"/><text x="176.0" y="424" font-family="Plus Jakarta Sans, sans-serif" font-size="14" font-weight="600" fill="#FFFFFF" text-anchor="middle">Open Stop Mode</text><text x="22" y="502" font-family="Plus Jakarta Sans, sans-serif" font-size="17" font-weight="600" fill="#0F172A" text-anchor="start">Remaining pickups</text><text x="22" y="541" font-family="Plus Jakarta Sans, sans-serif" font-size="15" font-weight="600" fill="#0F172A" text-anchor="start">Bring to origin hub</text><text x="22" y="564" font-family="Plus Jakarta Sans, sans-serif" font-size="12" font-weight="500" fill="#475569" text-anchor="start">DEMO-04822</text><text x="322" y="551" font-family="Plus Jakarta Sans, sans-serif" font-size="25" font-weight="400" fill="#475569" text-anchor="start">›</text><path d="M22 578 L330 578" stroke="#E2E8F0" stroke-width="1" fill="none"/><text x="22" y="607" font-family="Plus Jakarta Sans, sans-serif" font-size="15" font-weight="600" fill="#0F172A" text-anchor="start">Collect from seller</text><text x="22" y="630" font-family="Plus Jakarta Sans, sans-serif" font-size="12" font-weight="500" fill="#475569" text-anchor="start">DEMO-04823</text><text x="322" y="617" font-family="Plus Jakarta Sans, sans-serif" font-size="25" font-weight="400" fill="#475569" text-anchor="start">›</text><path d="M22 644 L330 644" stroke="#E2E8F0" stroke-width="1" fill="none"/><rect x="8" y="676" width="336" height="76" rx="20" fill="#FFFFFF" stroke="#E2E8F0"/><rect x="19" y="684" width="62" height="36" rx="20" fill="#FFF2F4" stroke="none"/><path d="M41 698h18v12h-18z M41 698l9-5 9 5 M50 698v12" fill="none" stroke="#C20836" stroke-width="1.8"/><text x="50" y="738" font-family="Plus Jakarta Sans, sans-serif" font-size="11" font-weight="600" fill="#C20836" text-anchor="middle">Tasks</text><path d="M125 699h18 M125 705h18 M125 711h12" fill="none" stroke="#475569" stroke-width="1.8"/><text x="134" y="738" font-family="Plus Jakarta Sans, sans-serif" font-size="11" font-weight="500" fill="#475569" text-anchor="middle">Trips</text><path d="M208 697h20v13h-13l-7 5z" fill="none" stroke="#475569" stroke-width="1.8"/><text x="218" y="738" font-family="Plus Jakarta Sans, sans-serif" font-size="11" font-weight="500" fill="#475569" text-anchor="middle">Messages</text><circle cx="302" cy="699" r="4" stroke="#475569" fill="none"/><path d="M293 713q0-10 9-10t9 10" stroke="#475569" fill="none"/><text x="302" y="738" font-family="Plus Jakarta Sans, sans-serif" font-size="11" font-weight="500" fill="#475569" text-anchor="middle">Profile</text></g><text x="904" y="186" font-family="Plus Jakarta Sans, sans-serif" font-size="16" font-weight="600" fill="#0F172A" text-anchor="start">P06  /  Stop Mode</text><g transform="translate(904,206)"><rect x="0" y="0" width="352" height="760" rx="28" fill="#F7F7FA" stroke="#CBD5E1"/><rect x="123" y="7" width="106" height="10" rx="5" fill="#0F172A" stroke="none"/><text x="25" y="31" font-family="Plus Jakarta Sans, sans-serif" font-size="13" font-weight="600" fill="#0F172A" text-anchor="start">9:41</text><text x="327" y="31" font-family="Plus Jakarta Sans, sans-serif" font-size="13" font-weight="600" fill="#0F172A" text-anchor="end">•••</text><path d="M31 60 21 70 31 80" fill="none" stroke="#0F172A" stroke-width="2" stroke-linecap="round"/><text x="330" y="78" font-family="Plus Jakarta Sans, sans-serif" font-size="13" font-weight="600" fill="#475569" text-anchor="end">Help</text><text x="22" y="124" font-family="Plus Jakarta Sans, sans-serif" font-size="25" font-weight="600" fill="#0F172A" text-anchor="start">Your selected stop</text><text x="22" y="149" font-family="Plus Jakarta Sans, sans-serif" font-size="13" font-weight="500" fill="#475569" text-anchor="start">DEMO-04821 · Delivery</text><rect x="22" y="173" width="144" height="28" rx="20" fill="#FFF2F4" stroke="none"/><text x="34" y="192" font-family="Plus Jakarta Sans, sans-serif" font-size="12" font-weight="600" fill="#C20836" text-anchor="start">Out for delivery</text><text x="22" y="226" font-family="Plus Jakarta Sans, sans-serif" font-size="21" font-weight="600" fill="#0F172A" text-anchor="start">Example recipient</text><text x="22" y="252" font-family="Plus Jakarta Sans, sans-serif" font-size="15" font-weight="400" fill="#475569" text-anchor="start">Example address · Unit 2</text><text x="22" y="280" font-family="Plus Jakarta Sans, sans-serif" font-size="13" font-weight="500" fill="#0F172A" text-anchor="start">Blue entrance beside the bakery</text><text x="22" y="303" font-family="Plus Jakarta Sans, sans-serif" font-size="12" font-weight="600" fill="#C20836" text-anchor="start">Open entrance instructions</text><rect x="22" y="326" width="308" height="138" rx="16" fill="#F3F1EC" stroke="#CBD5E1"/><g clip-path="url(#mapclip-326)"><path d="M38 316 L78 474" stroke="#FFFFFF" stroke-width="11" fill="none"/><path d="M38 316 L78 474" stroke="#D3DADD" stroke-width="1" fill="none"/><path d="M96 316 L136 474" stroke="#FFFFFF" stroke-width="11" fill="none"/><path d="M96 316 L136 474" stroke="#D3DADD" stroke-width="1" fill="none"/><path d="M154 316 L194 474" stroke="#FFFFFF" stroke-width="11" fill="none"/><path d="M154 316 L194 474" stroke="#D3DADD" stroke-width="1" fill="none"/><path d="M212 316 L252 474" stroke="#FFFFFF" stroke-width="11" fill="none"/><path d="M212 316 L252 474" stroke="#D3DADD" stroke-width="1" fill="none"/><path d="M270 316 L310 474" stroke="#FFFFFF" stroke-width="11" fill="none"/><path d="M270 316 L310 474" stroke="#D3DADD" stroke-width="1" fill="none"/><path d="M328 316 L368 474" stroke="#FFFFFF" stroke-width="11" fill="none"/><path d="M328 316 L368 474" stroke="#D3DADD" stroke-width="1" fill="none"/><path d="M10 366 L350 346" stroke="#FFFFFF" stroke-width="12" fill="none"/><path d="M10 366 L350 346" stroke="#D3DADD" stroke-width="1" fill="none"/><path d="M10 417 L350 397" stroke="#FFFFFF" stroke-width="12" fill="none"/><path d="M10 417 L350 397" stroke="#D3DADD" stroke-width="1" fill="none"/><path d="M10 457 L350 437" stroke="#FFFFFF" stroke-width="12" fill="none"/><path d="M10 457 L350 437" stroke="#D3DADD" stroke-width="1" fill="none"/><rect x="254" y="391" width="40" height="32" rx="3" fill="#DDE7DA" stroke="none"/></g><defs><clipPath id="mapclip-326"><rect x="22" y="326" width="308" height="138" rx="16" fill="#FFFFFF" stroke="none"/></clipPath></defs><path d="M176 418c-20-25-24-37-24-48a24 24 0 1 1 48 0c0 11-4 23-24 48Z" fill="#E00D42" stroke="white" stroke-width="2"/><circle cx="176" cy="369" r="7" fill="white"/><rect x="35" y="338" width="94" height="25" rx="20" fill="#FFFFFF" stroke="none"/><text x="47" y="355" font-family="Plus Jakarta Sans, sans-serif" font-size="11" font-weight="600" fill="#0F172A" text-anchor="start">Saved stop</text><text x="314" y="455" font-family="Plus Jakarta Sans, sans-serif" font-size="9" font-weight="400" fill="#475569" text-anchor="end">Map attribution</text><rect x="22" y="476" width="100" height="52" rx="12" fill="#FFFFFF" stroke="#64748B"/><text x="72.0" y="508" font-family="Plus Jakarta Sans, sans-serif" font-size="14" font-weight="600" fill="#0F172A" text-anchor="middle">Directions</text><rect x="126" y="476" width="100" height="52" rx="12" fill="#FFFFFF" stroke="#64748B"/><text x="176.0" y="508" font-family="Plus Jakarta Sans, sans-serif" font-size="14" font-weight="600" fill="#0F172A" text-anchor="middle">Call</text><rect x="230" y="476" width="100" height="52" rx="12" fill="#FFFFFF" stroke="#64748B"/><text x="280.0" y="508" font-family="Plus Jakarta Sans, sans-serif" font-size="14" font-weight="600" fill="#0F172A" text-anchor="middle">Message</text><text x="22" y="565" font-family="Plus Jakarta Sans, sans-serif" font-size="12" font-weight="500" fill="#475569" text-anchor="start">Parcel location</text><text x="22" y="589" font-family="Plus Jakarta Sans, sans-serif" font-size="16" font-weight="600" fill="#0F172A" text-anchor="start">Top box · Right</text><text x="330" y="565" font-family="Plus Jakarta Sans, sans-serif" font-size="12" font-weight="500" fill="#475569" text-anchor="end">Cash due</text><text x="330" y="594" font-family="Plus Jakarta Sans, sans-serif" font-size="24" font-weight="600" fill="#0F172A" text-anchor="end">₱685.00</text><rect x="22" y="614" width="308" height="52" rx="12" fill="#E00D42" stroke="none"/><text x="176.0" y="646" font-family="Plus Jakarta Sans, sans-serif" font-size="14" font-weight="600" fill="#FFFFFF" text-anchor="middle">Review handoff</text><rect x="8" y="676" width="336" height="76" rx="20" fill="#FFFFFF" stroke="#E2E8F0"/><rect x="19" y="684" width="62" height="36" rx="20" fill="#FFF2F4" stroke="none"/><path d="M41 698h18v12h-18z M41 698l9-5 9 5 M50 698v12" fill="none" stroke="#C20836" stroke-width="1.8"/><text x="50" y="738" font-family="Plus Jakarta Sans, sans-serif" font-size="11" font-weight="600" fill="#C20836" text-anchor="middle">Tasks</text><path d="M125 699h18 M125 705h18 M125 711h12" fill="none" stroke="#475569" stroke-width="1.8"/><text x="134" y="738" font-family="Plus Jakarta Sans, sans-serif" font-size="11" font-weight="500" fill="#475569" text-anchor="middle">Trips</text><path d="M208 697h20v13h-13l-7 5z" fill="none" stroke="#475569" stroke-width="1.8"/><text x="218" y="738" font-family="Plus Jakarta Sans, sans-serif" font-size="11" font-weight="500" fill="#475569" text-anchor="middle">Messages</text><circle cx="302" cy="699" r="4" stroke="#475569" fill="none"/><path d="M293 713q0-10 9-10t9 10" stroke="#475569" fill="none"/><text x="302" y="738" font-family="Plus Jakarta Sans, sans-serif" font-size="11" font-weight="500" fill="#475569" text-anchor="middle">Profile</text></g><text x="1324" y="186" font-family="Plus Jakarta Sans, sans-serif" font-size="16" font-weight="600" fill="#0F172A" text-anchor="start">P08  /  Parcel Finder</text><g transform="translate(1324,206)"><rect x="0" y="0" width="352" height="760" rx="28" fill="#F7F7FA" stroke="#CBD5E1"/><rect x="123" y="7" width="106" height="10" rx="5" fill="#0F172A" stroke="none"/><text x="25" y="31" font-family="Plus Jakarta Sans, sans-serif" font-size="13" font-weight="600" fill="#0F172A" text-anchor="start">9:41</text><text x="327" y="31" font-family="Plus Jakarta Sans, sans-serif" font-size="13" font-weight="600" fill="#0F172A" text-anchor="end">•••</text><path d="M31 60 21 70 31 80" fill="none" stroke="#0F172A" stroke-width="2" stroke-linecap="round"/><text x="330" y="78" font-family="Plus Jakarta Sans, sans-serif" font-size="13" font-weight="600" fill="#475569" text-anchor="end">Help</text><text x="22" y="124" font-family="Plus Jakarta Sans, sans-serif" font-size="25" font-weight="600" fill="#0F172A" text-anchor="start">Parcel Finder</text><text x="22" y="149" font-family="Plus Jakarta Sans, sans-serif" font-size="13" font-weight="500" fill="#475569" text-anchor="start">Organization for your pickups</text><rect x="22" y="171" width="135" height="28" rx="20" fill="#FFF2F4" stroke="none"/><text x="34" y="190" font-family="Plus Jakarta Sans, sans-serif" font-size="12" font-weight="600" fill="#C20836" text-anchor="start">DEMO-04821</text><rect x="22" y="216" width="308" height="252" rx="20" fill="#FFFFFF" stroke="#E2E8F0"/><text x="176" y="247" font-family="Plus Jakarta Sans, sans-serif" font-size="16" font-weight="600" fill="#0F172A" text-anchor="middle">Top box</text><rect x="47" y="270" width="122" height="118" rx="20" fill="#FFFFFF" stroke="#64748B"/><rect x="183" y="270" width="122" height="118" rx="20" fill="#FFF2F4" stroke="#C20836"/><g transform="translate(86 292) scale(0.9)"><path d="M0 10 20 0 40 10 20 21Z M0 10v24l20 11 20-11V10 M20 21v24 M10 5l20 10" stroke="#C20836" stroke-width="2" fill="none" stroke-linejoin="round"/></g><g transform="translate(222 292) scale(0.9)"><path d="M0 10 20 0 40 10 20 21Z M0 10v24l20 11 20-11V10 M20 21v24 M10 5l20 10" stroke="#C20836" stroke-width="2" fill="none" stroke-linejoin="round"/></g><text x="108" y="367" font-family="Plus Jakarta Sans, sans-serif" font-size="14" font-weight="600" fill="#0F172A" text-anchor="middle">Left</text><text x="244" y="367" font-family="Plus Jakarta Sans, sans-serif" font-size="12" font-weight="600" fill="#C20836" text-anchor="middle">Right · Selected</text><rect x="47" y="402" width="258" height="45" rx="20" fill="#FFFFFF" stroke="#64748B"/><text x="176" y="430" font-family="Plus Jakarta Sans, sans-serif" font-size="14" font-weight="600" fill="#0F172A" text-anchor="middle">Bag 2</text><text x="22" y="511" font-family="Plus Jakarta Sans, sans-serif" font-size="12" font-weight="500" fill="#475569" text-anchor="start">Selected parcel</text><text x="22" y="539" font-family="Plus Jakarta Sans, sans-serif" font-size="18" font-weight="600" fill="#0F172A" text-anchor="start">DEMO-04821</text><text x="22" y="568" font-family="Plus Jakarta Sans, sans-serif" font-size="14" font-weight="500" fill="#475569" text-anchor="start">Top box · Right compartment</text><rect x="22" y="605" width="308" height="52" rx="12" fill="#E00D42" stroke="none"/><text x="176.0" y="637" font-family="Plus Jakarta Sans, sans-serif" font-size="14" font-weight="600" fill="#FFFFFF" text-anchor="middle">Save parcel location</text><rect x="8" y="676" width="336" height="76" rx="20" fill="#FFFFFF" stroke="#E2E8F0"/><rect x="19" y="684" width="62" height="36" rx="20" fill="#FFF2F4" stroke="none"/><path d="M41 698h18v12h-18z M41 698l9-5 9 5 M50 698v12" fill="none" stroke="#C20836" stroke-width="1.8"/><text x="50" y="738" font-family="Plus Jakarta Sans, sans-serif" font-size="11" font-weight="600" fill="#C20836" text-anchor="middle">Tasks</text><path d="M125 699h18 M125 705h18 M125 711h12" fill="none" stroke="#475569" stroke-width="1.8"/><text x="134" y="738" font-family="Plus Jakarta Sans, sans-serif" font-size="11" font-weight="500" fill="#475569" text-anchor="middle">Trips</text><path d="M208 697h20v13h-13l-7 5z" fill="none" stroke="#475569" stroke-width="1.8"/><text x="218" y="738" font-family="Plus Jakarta Sans, sans-serif" font-size="11" font-weight="500" fill="#475569" text-anchor="middle">Messages</text><circle cx="302" cy="699" r="4" stroke="#475569" fill="none"/><path d="M293 713q0-10 9-10t9 10" stroke="#475569" fill="none"/><text x="302" y="738" font-family="Plus Jakarta Sans, sans-serif" font-size="11" font-weight="500" fill="#475569" text-anchor="middle">Profile</text></g><text x="64" y="1027" font-family="Plus Jakarta Sans, sans-serif" font-size="16" font-weight="600" fill="#0F172A" text-anchor="start">P11  /  Evidence review</text><g transform="translate(64,1047)"><rect x="0" y="0" width="352" height="760" rx="28" fill="#F7F7FA" stroke="#CBD5E1"/><rect x="123" y="7" width="106" height="10" rx="5" fill="#0F172A" stroke="none"/><text x="25" y="31" font-family="Plus Jakarta Sans, sans-serif" font-size="13" font-weight="600" fill="#0F172A" text-anchor="start">9:41</text><text x="327" y="31" font-family="Plus Jakarta Sans, sans-serif" font-size="13" font-weight="600" fill="#0F172A" text-anchor="end">•••</text><path d="M31 60 21 70 31 80" fill="none" stroke="#0F172A" stroke-width="2" stroke-linecap="round"/><text x="330" y="78" font-family="Plus Jakarta Sans, sans-serif" font-size="13" font-weight="600" fill="#475569" text-anchor="end">Help</text><text x="22" y="124" font-family="Plus Jakarta Sans, sans-serif" font-size="25" font-weight="600" fill="#0F172A" text-anchor="start">Delivery evidence</text><text x="22" y="149" font-family="Plus Jakarta Sans, sans-serif" font-size="13" font-weight="500" fill="#475569" text-anchor="start">Step 1 of 3 · DEMO-04821</text><text x="22" y="190" font-family="Plus Jakarta Sans, sans-serif" font-size="14" font-weight="600" fill="#0F172A" text-anchor="start">Recipient / relationship</text><rect x="22" y="202" width="308" height="52" rx="12" fill="#FFFFFF" stroke="#64748B"/><text x="36" y="235" font-family="Plus Jakarta Sans, sans-serif" font-size="16" font-weight="400" fill="#475569" text-anchor="start">Example recipient</text><text x="22" y="290" font-family="Plus Jakarta Sans, sans-serif" font-size="14" font-weight="600" fill="#0F172A" text-anchor="start">Proof photo</text><rect x="22" y="307" width="308" height="178" rx="20" fill="#F1F5F9" stroke="#64748B"/><rect x="108" y="343" width="136" height="96" rx="20" fill="#FFFFFF" stroke="#CBD5E1"/><g transform="translate(143 365) scale(1.4)"><path d="M0 10 20 0 40 10 20 21Z M0 10v24l20 11 20-11V10 M20 21v24 M10 5l20 10" stroke="#C20836" stroke-width="2" fill="none" stroke-linejoin="round"/></g><text x="176" y="467" font-family="Plus Jakarta Sans, sans-serif" font-size="12" font-weight="500" fill="#475569" text-anchor="middle">Illustrative sample image</text><rect x="22" y="503" width="148" height="52" rx="12" fill="#FFFFFF" stroke="#64748B"/><text x="96.0" y="535" font-family="Plus Jakarta Sans, sans-serif" font-size="14" font-weight="600" fill="#0F172A" text-anchor="middle">Replace photo</text><rect x="182" y="503" width="148" height="52" rx="12" fill="#FFFFFF" stroke="#64748B"/><text x="256.0" y="535" font-family="Plus Jakarta Sans, sans-serif" font-size="14" font-weight="600" fill="#0F172A" text-anchor="middle">Remove</text><text x="22" y="591" font-family="Plus Jakarta Sans, sans-serif" font-size="13" font-weight="500" fill="#475569" text-anchor="start">Review the handoff before submission.</text><rect x="22" y="661" width="308" height="52" rx="12" fill="#E00D42" stroke="none"/><text x="176.0" y="693" font-family="Plus Jakarta Sans, sans-serif" font-size="14" font-weight="600" fill="#FFFFFF" text-anchor="middle">Continue</text><text x="176" y="741" font-family="Plus Jakarta Sans, sans-serif" font-size="12" font-weight="500" fill="#475569" text-anchor="middle">Cancel returns to your parcel</text></g><text x="484" y="1027" font-family="Plus Jakarta Sans, sans-serif" font-size="16" font-weight="600" fill="#0F172A" text-anchor="start">P12  /  Cash review</text><g transform="translate(484,1047)"><rect x="0" y="0" width="352" height="760" rx="28" fill="#F7F7FA" stroke="#CBD5E1"/><rect x="123" y="7" width="106" height="10" rx="5" fill="#0F172A" stroke="none"/><text x="25" y="31" font-family="Plus Jakarta Sans, sans-serif" font-size="13" font-weight="600" fill="#0F172A" text-anchor="start">9:41</text><text x="327" y="31" font-family="Plus Jakarta Sans, sans-serif" font-size="13" font-weight="600" fill="#0F172A" text-anchor="end">•••</text><path d="M31 60 21 70 31 80" fill="none" stroke="#0F172A" stroke-width="2" stroke-linecap="round"/><text x="330" y="78" font-family="Plus Jakarta Sans, sans-serif" font-size="13" font-weight="600" fill="#475569" text-anchor="end">Help</text><text x="22" y="124" font-family="Plus Jakarta Sans, sans-serif" font-size="25" font-weight="600" fill="#0F172A" text-anchor="start">Cash at delivery</text><text x="22" y="149" font-family="Plus Jakarta Sans, sans-serif" font-size="13" font-weight="500" fill="#475569" text-anchor="start">Step 2 of 3 · DEMO-04821</text><rect x="22" y="182" width="308" height="125" rx="20" fill="#FFFFFF" stroke="#E2E8F0"/><text x="38" y="214" font-family="Plus Jakarta Sans, sans-serif" font-size="12" font-weight="600" fill="#475569" text-anchor="start">AMOUNT DUE</text><text x="38" y="267" font-family="Plus Jakarta Sans, sans-serif" font-size="36" font-weight="600" fill="#0F172A" text-anchor="start">₱685.00</text><text x="313" y="285" font-family="Plus Jakarta Sans, sans-serif" font-size="12" font-weight="600" fill="#475569" text-anchor="end">COD</text><text x="22" y="354" font-family="Plus Jakarta Sans, sans-serif" font-size="14" font-weight="600" fill="#0F172A" text-anchor="start">Cash tendered</text><rect x="22" y="366" width="308" height="52" rx="12" fill="#FFFFFF" stroke="#64748B"/><text x="36" y="399" font-family="Plus Jakarta Sans, sans-serif" font-size="16" font-weight="400" fill="#475569" text-anchor="start">₱1,000.00</text><rect x="22" y="452" width="308" height="105" rx="20" fill="#FFF2F4" stroke="none"/><text x="38" y="482" font-family="Plus Jakarta Sans, sans-serif" font-size="13" font-weight="500" fill="#475569" text-anchor="start">Correct change</text><text x="38" y="522" font-family="Plus Jakarta Sans, sans-serif" font-size="30" font-weight="600" fill="#0F172A" text-anchor="start">₱315.00</text><text x="22" y="598" font-family="Plus Jakarta Sans, sans-serif" font-size="14" font-weight="500" fill="#475569" text-anchor="start">Amount due remains ₱685.00.</text><text x="22" y="623" font-family="Plus Jakarta Sans, sans-serif" font-size="13" font-weight="600" fill="#C20836" text-anchor="start">Cash problem? Get the next step.</text><rect x="22" y="661" width="308" height="52" rx="12" fill="#E00D42" stroke="none"/><text x="176.0" y="693" font-family="Plus Jakarta Sans, sans-serif" font-size="14" font-weight="600" fill="#FFFFFF" text-anchor="middle">Continue to review</text></g><text x="904" y="1027" font-family="Plus Jakarta Sans, sans-serif" font-size="16" font-weight="600" fill="#0F172A" text-anchor="start">P22  /  Conversation</text><g transform="translate(904,1047)"><rect x="0" y="0" width="352" height="760" rx="28" fill="#F7F7FA" stroke="#CBD5E1"/><rect x="123" y="7" width="106" height="10" rx="5" fill="#0F172A" stroke="none"/><text x="25" y="31" font-family="Plus Jakarta Sans, sans-serif" font-size="13" font-weight="600" fill="#0F172A" text-anchor="start">9:41</text><text x="327" y="31" font-family="Plus Jakarta Sans, sans-serif" font-size="13" font-weight="600" fill="#0F172A" text-anchor="end">•••</text><path d="M31 60 21 70 31 80" fill="none" stroke="#0F172A" stroke-width="2" stroke-linecap="round"/><text x="330" y="78" font-family="Plus Jakarta Sans, sans-serif" font-size="13" font-weight="600" fill="#475569" text-anchor="end">Help</text><text x="22" y="124" font-family="Plus Jakarta Sans, sans-serif" font-size="25" font-weight="600" fill="#0F172A" text-anchor="start">Example recipient</text><text x="22" y="149" font-family="Plus Jakarta Sans, sans-serif" font-size="13" font-weight="500" fill="#475569" text-anchor="start">DEMO-04821 · Delivery</text><rect x="22" y="170" width="308" height="60" rx="20" fill="#FFF2F4" stroke="none"/><text x="38" y="195" font-family="Plus Jakarta Sans, sans-serif" font-size="14" font-weight="600" fill="#0F172A" text-anchor="start">Saved buyer destination</text><text x="38" y="216" font-family="Plus Jakarta Sans, sans-serif" font-size="12" font-weight="600" fill="#C20836" text-anchor="start">Return to task ›</text><rect x="22" y="260" width="250" height="75" rx="20" fill="#FFFFFF" stroke="#E2E8F0"/><text x="36" y="287" font-family="Plus Jakarta Sans, sans-serif" font-size="15" font-weight="400" fill="#0F172A" text-anchor="start">The entrance is beside</text><text x="36" y="310" font-family="Plus Jakarta Sans, sans-serif" font-size="15" font-weight="400" fill="#0F172A" text-anchor="start">the bakery. Unit 2.</text><rect x="71" y="366" width="259" height="67" rx="20" fill="#FFF2F4" stroke="none"/><text x="85" y="395" font-family="Plus Jakarta Sans, sans-serif" font-size="14" font-weight="400" fill="#0F172A" text-anchor="start">Thank you. I will check it.</text><text x="176" y="469" font-family="Plus Jakarta Sans, sans-serif" font-size="12" font-weight="500" fill="#475569" text-anchor="middle">Sample conversation</text><rect x="22" y="620" width="308" height="100" rx="20" fill="#FFFFFF" stroke="#64748B"/><text x="36" y="650" font-family="Plus Jakarta Sans, sans-serif" font-size="15" font-weight="400" fill="#475569" text-anchor="start">Write a message…</text><rect x="214" y="668" width="102" height="48" rx="20" fill="#E00D42" stroke="none"/><text x="265" y="697" font-family="Plus Jakarta Sans, sans-serif" font-size="13" font-weight="600" fill="#FFFFFF" text-anchor="middle">Send</text></g><text x="1324" y="1027" font-family="Plus Jakarta Sans, sans-serif" font-size="16" font-weight="600" fill="#0F172A" text-anchor="start">P25  /  Profile</text><g transform="translate(1324,1047)"><rect x="0" y="0" width="352" height="760" rx="28" fill="#F7F7FA" stroke="#CBD5E1"/><rect x="123" y="7" width="106" height="10" rx="5" fill="#0F172A" stroke="none"/><text x="25" y="31" font-family="Plus Jakarta Sans, sans-serif" font-size="13" font-weight="600" fill="#0F172A" text-anchor="start">9:41</text><text x="327" y="31" font-family="Plus Jakarta Sans, sans-serif" font-size="13" font-weight="600" fill="#0F172A" text-anchor="end">•••</text><text x="22" y="78" font-family="Plus Jakarta Sans, sans-serif" font-size="20" font-weight="700" fill="#0F172A" text-anchor="start">BagooPH</text><text x="22" y="124" font-family="Plus Jakarta Sans, sans-serif" font-size="25" font-weight="600" fill="#0F172A" text-anchor="start">Profile</text><rect x="22" y="160" width="308" height="104" rx="20" fill="#FFFFFF" stroke="none"/><circle cx="61" cy="210" r="24" fill="#FFF2F4"/><text x="61" y="216" font-family="Plus Jakarta Sans, sans-serif" font-size="15" font-weight="600" fill="#C20836" text-anchor="middle">DR</text><text x="102" y="194" font-family="Plus Jakarta Sans, sans-serif" font-size="17" font-weight="600" fill="#0F172A" text-anchor="start">Demo rider</text><text x="102" y="217" font-family="Plus Jakarta Sans, sans-serif" font-size="12" font-weight="500" fill="#475569" text-anchor="start">rider@example.test</text><text x="102" y="241" font-family="Plus Jakarta Sans, sans-serif" font-size="12" font-weight="600" fill="#C20836" text-anchor="start">Account details</text><text x="309" y="216" font-family="Plus Jakarta Sans, sans-serif" font-size="24" font-weight="400" fill="#475569" text-anchor="start">›</text><rect x="22" y="284" width="308" height="58" rx="20" fill="#FFFFFF" stroke="none"/><text x="42" y="319" font-family="Plus Jakarta Sans, sans-serif" font-size="16" font-weight="500" fill="#0F172A" text-anchor="start">Settings</text><text x="309" y="319" font-family="Plus Jakarta Sans, sans-serif" font-size="24" font-weight="400" fill="#475569" text-anchor="start">›</text><text x="24" y="378" font-family="Plus Jakarta Sans, sans-serif" font-size="13" font-weight="500" fill="#475569" text-anchor="start">Work information</text><rect x="22" y="394" width="308" height="116" rx="20" fill="#FFFFFF" stroke="none"/><text x="42" y="429" font-family="Plus Jakarta Sans, sans-serif" font-size="16" font-weight="500" fill="#0F172A" text-anchor="start">Assignment</text><text x="309" y="429" font-family="Plus Jakarta Sans, sans-serif" font-size="24" font-weight="400" fill="#475569" text-anchor="start">›</text><text x="42" y="487" font-family="Plus Jakarta Sans, sans-serif" font-size="16" font-weight="500" fill="#0F172A" text-anchor="start">Vehicle and credentials</text><text x="309" y="487" font-family="Plus Jakarta Sans, sans-serif" font-size="24" font-weight="400" fill="#475569" text-anchor="start">›</text><path d="M42 452 L312 452" stroke="#E2E8F0" stroke-width="1" fill="none"/><rect x="8" y="676" width="336" height="76" rx="20" fill="#FFFFFF" stroke="#E2E8F0"/><path d="M41 698h18v12h-18z M41 698l9-5 9 5 M50 698v12" fill="none" stroke="#475569" stroke-width="1.8"/><text x="50" y="738" font-family="Plus Jakarta Sans, sans-serif" font-size="11" font-weight="500" fill="#475569" text-anchor="middle">Tasks</text><path d="M125 699h18 M125 705h18 M125 711h12" fill="none" stroke="#475569" stroke-width="1.8"/><text x="134" y="738" font-family="Plus Jakarta Sans, sans-serif" font-size="11" font-weight="500" fill="#475569" text-anchor="middle">Trips</text><path d="M208 697h20v13h-13l-7 5z" fill="none" stroke="#475569" stroke-width="1.8"/><text x="218" y="738" font-family="Plus Jakarta Sans, sans-serif" font-size="11" font-weight="500" fill="#475569" text-anchor="middle">Messages</text><rect x="271" y="684" width="62" height="36" rx="20" fill="#FFF2F4" stroke="none"/><circle cx="302" cy="699" r="4" stroke="#C20836" fill="none"/><path d="M293 713q0-10 9-10t9 10" stroke="#C20836" fill="none"/><text x="302" y="738" font-family="Plus Jakarta Sans, sans-serif" font-size="11" font-weight="600" fill="#C20836" text-anchor="middle">Profile</text></g><text x="64" y="1872" font-family="Plus Jakarta Sans, sans-serif" font-size="14" font-weight="600" fill="#475569" text-anchor="start">48 full native views · 8 external views · 20 app overlays · 4 stable destinations</text></svg>